<?xml version="1.0" encoding="utf-8"?>
<svg viewBox="735.4000854492188 401.1000061035156 310.79998779296875 310.8000183105469" width="310.79998779296875" height="310.8000183105469" xmlns="http://www.w3.org/2000/svg"><g transform="matrix(1, 0, 0, 1, 0, 0)"><path d="M 1046.199982 556.5 A 155.399994 155.399994 0 0 1 890.799988 711.899994 A 155.399994 155.399994 0 0 1 735.399994 556.5 A 155.399994 155.399994 0 0 1 890.799988 401.100006 A 155.399994 155.399994 0 0 1 1046.199982 556.5 Z" class="st3" style="fill: rgb(237, 28, 36);" transform="matrix(1, 0, 0, 1, 3.637978807091713e-12, 8.952838470577262e-13)"/><path class="st2" d="M890.8,426.7c75.9,0,138,59.3,142.5,134c0.2-2.9,0.3-5.8,0.3-8.7c0-78.8-63.9-142.7-142.7-142.7&#10;&#9;&#9;&#9;S748.1,473.2,748.1,552c0,2.9,0.1,5.8,0.3,8.7C752.9,486,814.9,426.7,890.8,426.7z" style="fill: rgb(255, 255, 255);" transform="matrix(1, 0, 0, 1, 3.637978807091713e-12, 8.952838470577262e-13)"/><path class="st2" d="M820.9,625V514.5h19.7l17.1,43.3c3.3,8.5,8.7,22.8,11.8,32.3h0.3c-0.7-11.6-2.1-30.8-2.1-51.2v-24.4h18.9V625&#10;&#9;&#9;&#9;h-19.7l-16.9-42c-3.6-9.3-8.7-23.3-11.2-33.3h-0.3c0.5,11.2,1.3,28.2,1.3,50.4V625H820.9z" style="fill: rgb(255, 255, 255);" transform="matrix(1, 0, 0, 1, 3.637978807091713e-12, 8.952838470577262e-13)"/><path class="st2" d="M970.8,567.8c0,41.7-14.8,58.6-35.8,58.6c-25.1,0-34.9-26.6-34.9-56.9c0-30.2,12-56.3,36.4-56.3&#10;&#9;&#9;&#9;C963.3,513.2,970.8,542.5,970.8,567.8z M922.4,569.7c0,25.1,4.8,37.9,13.5,37.9c9,0,12.5-16.4,12.5-38.9c0-19.4-3-36.9-12.6-36.9&#10;&#9;&#9;&#9;C927.2,531.9,922.4,546,922.4,569.7z" style="fill: rgb(255, 255, 255);" transform="matrix(1, 0, 0, 1, 3.637978807091713e-12, 8.952838470577262e-13)"/><path class="st4" d="M890.8,401.1v310.8c85.8,0,155.4-69.6,155.4-155.4S976.7,401.1,890.8,401.1z" style="opacity: 0.15; fill: rgb(65, 64, 66);" transform="matrix(1, 0, 0, 1, 1.7621459846850485e-12, 4.689582056016661e-13)"/></g></svg>